<svg xmlns="http://www.w3.org/2000/svg" width="1280" height="720" viewBox="0 0 1280 720" role="img" aria-label="Preview CV landing page">
  <rect width="1280" height="720" fill="#f7f8fc"/>
  <rect width="1280" height="68" fill="#ffffff"/>
  <rect x="48" y="22" width="180" height="20" rx="6" fill="#1e1e1e" opacity="0.85"/>
  <rect x="760" y="24" width="84" height="14" rx="4" fill="#3343b5"/>
  <rect x="856" y="24" width="84" height="14" rx="4" fill="#3343b5"/>
  <rect x="952" y="24" width="84" height="14" rx="4" fill="#3343b5"/>
  <rect x="1048" y="24" width="84" height="14" rx="4" fill="#3343b5"/>
  <rect x="0" y="68" width="1280" height="220" fill="#eef2ff"/>
  <rect x="96" y="112" width="220" height="14" rx="5" fill="#5d647b"/>
  <rect x="96" y="140" width="420" height="34" rx="8" fill="#202020" opacity="0.88"/>
  <rect x="96" y="188" width="300" height="20" rx="6" fill="#2e3568" opacity="0.9"/>
  <rect x="96" y="222" width="560" height="14" rx="5" fill="#444" opacity="0.4"/>
  <rect x="96" y="250" width="180" height="36" rx="8" fill="#3343b5"/>
  <rect x="96" y="330" width="1088" height="120" rx="12" fill="#ffffff" stroke="#e5e7f1"/>
  <rect x="96" y="470" width="520" height="120" rx="12" fill="#ffffff" stroke="#e5e7f1"/>
  <rect x="664" y="470" width="520" height="120" rx="12" fill="#ffffff" stroke="#e5e7f1"/>
  <text x="96" y="640" font-family="Arial, Helvetica, sans-serif" font-size="24" fill="#333">CVasiuc Dmitrii - CV online</text>
</svg>
